<?xml version="1.0" encoding="UTF-8" standalone="no"?>
<svg
   xmlns:dc="http://purl.org/dc/elements/1.1/"
   xmlns:cc="http://creativecommons.org/ns#"
   xmlns:rdf="http://www.w3.org/1999/02/22-rdf-syntax-ns#"
   xmlns:svg="http://www.w3.org/2000/svg"
   xmlns="http://www.w3.org/2000/svg"
   xmlns:sodipodi="http://sodipodi.sourceforge.net/DTD/sodipodi-0.dtd"
   xmlns:inkscape="http://www.inkscape.org/namespaces/inkscape"
   width="300.0px"
   height="300.0px"
   viewBox="0 0 300.0 300.0"
   version="1.1"
   id="SVGRoot"
   sodipodi:docname="logo.svg"
   inkscape:version="1.0.1 (3bc2e813f5, 2020-09-07)">
  <defs
     id="defs109" />
  <sodipodi:namedview
     id="base"
     pagecolor="#ffffff"
     bordercolor="#666666"
     borderopacity="1.0"
     inkscape:pageopacity="0.0"
     inkscape:pageshadow="2"
     inkscape:zoom="1.4"
     inkscape:cx="64.085175"
     inkscape:cy="29.122908"
     inkscape:document-units="px"
     inkscape:current-layer="layer1"
     inkscape:document-rotation="0"
     showgrid="true"
     inkscape:window-width="1431"
     inkscape:window-height="1030"
     inkscape:window-x="96"
     inkscape:window-y="0"
     inkscape:window-maximized="0">
    <inkscape:grid
       type="xygrid"
       id="grid118" />
  </sodipodi:namedview>
  <metadata
     id="metadata112">
    <rdf:RDF>
      <cc:Work
         rdf:about="">
        <dc:format>image/svg+xml</dc:format>
        <dc:type
           rdf:resource="http://purl.org/dc/dcmitype/StillImage" />
        <dc:title></dc:title>
      </cc:Work>
    </rdf:RDF>
  </metadata>
  <g
     inkscape:label="Layer 1"
     inkscape:groupmode="layer"
     id="layer1">
    <rect
       style="fill:#000000"
       id="rect125"
       width="140"
       height="220"
       x="80"
       y="40" />
    <rect
       style="fill:#333333"
       id="rect127"
       width="110"
       height="175"
       x="95"
       y="65" />
    <rect
       style="fill:#ffffff"
       id="rect129"
       width="20"
       height="10"
       x="170"
       y="50" />
    <rect
       style="fill:#ffffff"
       id="rect134"
       width="5"
       height="15"
       x="90"
       y="245" />
    <rect
       style="fill:#ffffff"
       id="rect139"
       width="5"
       height="5"
       x="90"
       y="240" />
    <rect
       style="fill:#ffffff"
       id="rect141"
       width="5"
       height="5"
       x="95"
       y="245" />
    <rect
       style="fill:#ffffff"
       id="rect146"
       width="5"
       height="20"
       x="100"
       y="240" />
    <rect
       style="fill:#ffffff"
       id="rect148"
       width="15"
       height="20"
       x="110"
       y="240" />
    <rect
       style="fill:#ffffff"
       id="rect150"
       width="5"
       height="20"
       x="130"
       y="240" />
    <rect
       style="fill:#ffffff"
       id="rect152"
       width="5"
       height="5"
       x="135"
       y="245" />
    <rect
       style="fill:#ffffff"
       id="rect154"
       width="5"
       height="5"
       x="140"
       y="250" />
    <rect
       style="fill:#ffffff"
       id="rect156"
       width="5"
       height="20"
       x="145"
       y="240" />
    <rect
       style="fill:#ffffff"
       id="rect158"
       width="15"
       height="20"
       x="155"
       y="240" />
    <rect
       style="fill:#ffffff"
       id="rect160"
       width="5"
       height="20"
       x="175"
       y="240" />
    <rect
       style="fill:#ffffff"
       id="rect162"
       width="5"
       height="5"
       x="180"
       y="240" />
    <rect
       style="fill:#ffffff"
       id="rect164"
       width="5"
       height="5"
       x="185"
       y="245" />
    <rect
       style="fill:#ffffff"
       id="rect166"
       width="5"
       height="5"
       x="180"
       y="250" />
    <rect
       style="fill:#ffffff"
       id="rect168"
       width="5"
       height="5"
       x="185"
       y="255" />
    <rect
       style="fill:#ffffff"
       id="rect170"
       width="7.2759576e-12"
       height="5"
       x="200"
       y="240" />
    <path
       id="rect172"
       style="fill:#ffffff"
       d="m 195,240 v 20 h 15 v -20 z m 6.7168,10.86719 c 0.0458,-0.0552 0.3747,0.0548 0.49804,0.0391 0.23294,-0.0162 0.46591,-0.0108 0.69922,-0.01 0.26902,0.002 0.53958,1.7e-4 0.8086,0 0.0285,3e-5 0.0609,-0.0139 0.0859,0 0.0842,0.0469 0.17282,0.0891 0.25977,0.13477 0.49384,-0.003 0.76206,0.55151 0.7793,0.94922 0.006,0.13202 -0.0169,0.2135 -0.0469,0.31055 0.007,0.0725 0.009,0.14795 0.01,0.21875 -0.003,0.2205 -0.006,0.4416 -0.004,0.66211 2.6e-4,0.0627 5e-5,0.12483 0,0.1875 0.0145,0.006 0.0286,0.0131 0.043,0.0195 0.0985,0.35366 0.1195,0.36183 0.0977,0.52929 0.14525,-0.10174 0.20339,-0.1209 -0.0215,0.17774 -0.0261,0.0347 -0.008,0.0575 0.0156,-0.0918 0.008,-0.0505 0.002,-0.0539 0.006,-0.0859 -0.134,0.0939 -0.3367,0.24925 -0.57227,0.38868 0.0158,0.009 0.0359,0.0105 0.0508,0.0215 0.0529,0.0388 -0.0471,0.0466 -0.15234,0.0391 -0.32564,0.17102 -0.62162,0.20971 -0.60938,-0.27148 0.001,-0.0486 0.008,-0.0625 0.01,-0.10547 -0.11692,-0.12243 -0.13008,-0.22152 -0.12891,-0.45313 1e-5,-0.1156 4.4e-4,-0.23206 0,-0.34765 -10e-4,-0.22025 9.1e-4,-0.43994 0.004,-0.66016 10e-4,-0.0947 -0.024,-0.19791 -0.0137,-0.29101 5e-4,-0.005 0.001,-0.009 0.002,-0.0137 -0.0168,-0.0131 -0.0342,-0.0187 -0.0508,-0.0352 -0.005,-0.005 -0.005,-0.0141 -0.01,-0.0195 -0.0579,1.3e-4 -0.11589,-9e-5 -0.17383,0 0.38659,0.6984 -0.35321,1.373 -1.09961,0.61914 -0.26131,-0.26394 -0.79334,-0.4474 -0.94335,-0.81055 -0.0235,-0.0568 -0.0195,-0.11968 -0.0195,-0.18164 -0.0106,-0.0266 -0.0103,-0.0174 -0.0273,-0.0606 0.005,-0.0852 -8.9e-4,-0.33962 0.0156,-0.25586 0.0203,0.10312 0.0117,0.21041 0.0117,0.31641 0.11031,0.27701 -0.0652,-0.26732 0.47657,-0.91992 z m 1.49414,0.74023 c -0.061,-0.0881 0.0152,0.2358 0.0937,0.3086 0.0193,0.0178 0.0419,0.0257 0.0625,0.041 -0.0452,-0.12019 -0.0842,-0.24557 -0.15625,-0.34961 z m 1.02148,1.45117 c -0.0449,-0.001 -0.078,0.007 -0.0527,0.0215 0.0802,0.0467 0.16874,0.0762 0.2539,0.11328 -0.0275,-0.0332 -0.0493,-0.0712 -0.0801,-0.10156 -0.0208,-0.0206 -0.0762,-0.0319 -0.1211,-0.0332 z" />
    <rect
       style="fill:#000000"
       id="rect181"
       width="5"
       height="5"
       x="200"
       y="250" />
    <rect
       style="fill:#000000"
       id="rect183"
       width="5"
       height="5"
       x="200"
       y="245" />
    <rect
       style="fill:#ffffff"
       id="rect188"
       width="5"
       height="2"
       x="200"
       y="249" />
    <rect
       style="fill:#000000"
       id="rect190"
       width="2"
       height="4"
       x="208"
       y="248" />
    <rect
       style="fill:#000000"
       id="rect192"
       width="2"
       height="4"
       x="195"
       y="248" />
    <rect
       style="fill:#ff0000"
       id="rect194"
       width="20"
       height="10"
       x="170"
       y="50" />
  </g>
</svg>
